<svg xmlns="http://www.w3.org/2000/svg" viewBox="0 0 20 16.067"><defs><style>.a{fill:#4284dd;}</style></defs><g transform="translate(-12.485 -19.879)"><path class="a" d="M29.8,28.532h2.375a.313.313,0,0,1,.312.312V41.561a.733.733,0,0,1-.215.516.724.724,0,0,1-.516.215H13.215a.733.733,0,0,1-.516-.215.724.724,0,0,1-.215-.516V29.472a.708.708,0,0,0,.312.074h16.29a.705.705,0,0,0,.7-.7v-.312ZM19.275,34.844v1.449h2.332v2.332h1.761V36.293H25.7V34.531H23.369V32.2H21.607v2.332H19.275Z" transform="translate(0 -6.345)"/><path class="a" d="M12.821,19.879h16.29a.313.313,0,0,1,.312.312V22.5a.313.313,0,0,1-.312.312H12.821a.313.313,0,0,1-.312-.312V20.191A.313.313,0,0,1,12.821,19.879Z" transform="translate(-0.017 0)"/></g></svg>