<svg xmlns="http://www.w3.org/2000/svg" viewBox="0 0 20 14.495"><defs><style>.a{fill:#4284dd;fill-rule:evenodd;}</style></defs><g transform="translate(0.028 -13.742)"><path class="a" d="M20.417,16.869a3.127,3.127,0,1,1-3.127-3.127,3.127,3.127,0,0,1,3.127,3.127" transform="translate(-11.354 0)"/><path class="a" d="M67.353,17.08a3.128,3.128,0,1,1-3.127-3.127,3.128,3.128,0,0,1,3.127,3.127" transform="translate(-48.908 -0.169)"/><path class="a" d="M56.658,51.164a5.968,5.968,0,0,1,5.874,6.973l-6.93.042a6.063,6.063,0,0,0-2.324-5.958,6.159,6.159,0,0,1,3.381-1.056Z" transform="translate(-42.65 -29.942)"/><path class="a" d="M5.936,51.375a5.92,5.92,0,0,1,5.832,6.973H.062a5.949,5.949,0,0,1,5.874-6.973Z" transform="translate(0 -30.111)"/></g></svg>