<svg xmlns="http://www.w3.org/2000/svg" viewBox="0 0 14.459 20"><defs><style>.a{fill:#4284dd;}</style></defs><path class="a" d="M35.534,19.1a1.35,1.35,0,0,1-1.35-1.35H27.831a1.351,1.351,0,0,1-1.35,1.35,2.7,2.7,0,0,0-2.7,2.7v9.9A2.027,2.027,0,0,0,25.8,33.73h10.4A2.026,2.026,0,0,0,38.235,31.7V21.8a2.7,2.7,0,0,0-2.7-2.7Zm-.1,11.151H26.579v-8.06h8.858v8.06Zm-5.374-1.193h1.89V27.166h1.891v-1.89H31.952V23.385h-1.89v1.891H28.17v1.89h1.891ZM35.824,13.73H26.192v3.238h9.632Z" transform="translate(-23.778 -13.73)"/></svg>