<svg xmlns="http://www.w3.org/2000/svg" viewBox="0 0 19.957 20"><defs><style>.a{fill:#4284dd;}</style></defs><g transform="translate(-1.039 -0.832)"><path class="a" d="M83.444,78.252l-2.462-2.42a7.431,7.431,0,0,1-.552.637,7.286,7.286,0,0,1-.637.552l2.462,2.462a.822.822,0,0,0,1.189,0,.869.869,0,0,0,0-1.231Z" transform="translate(-62.703 -59.714)"/><path class="a" d="M42.414,31.693a5.295,5.295,0,0,0-5.945-.977,5.194,5.194,0,0,0-1.4.977A5.081,5.081,0,0,0,33.539,35.3a5.006,5.006,0,0,0,1.529,3.609,4.688,4.688,0,0,0,1.189.849,5.289,5.289,0,0,0,6.2-.849A5.081,5.081,0,0,0,43.984,35.3,5.224,5.224,0,0,0,42.414,31.693Z" transform="translate(-25.876 -23.388)"/><path class="a" d="M6.008,11.914a6.746,6.746,0,0,1,2-4.8A6.648,6.648,0,0,1,11.443,5.29V2.531h.34a.849.849,0,0,0,0-1.7H1.889a.849.849,0,0,0,0,1.7h.34V16.246a4.634,4.634,0,0,0,8.7,2.166,6.945,6.945,0,0,1-2.888-1.7,6.617,6.617,0,0,1-2.037-4.8Z" transform="translate(0 0)"/></g></svg>