<svg xmlns="http://www.w3.org/2000/svg" viewBox="0 0 18.06 20"><defs><style>.a{fill:#4284dd;fill-rule:evenodd;}</style></defs><g transform="translate(-12.977 -9)"><path class="a" d="M30.321,9a1.437,1.437,0,0,0,0,2.873h.442a.243.243,0,0,1,.244.244v3.255a3.1,3.1,0,0,1-.549,1.875c-.333.488-.773.927-1.28,1.616v7.843A2.827,2.827,0,0,1,28.02,29H39.75a4.066,4.066,0,0,0,2.088-.572,1.319,1.319,0,0,0,.572-1.136,8.072,8.072,0,0,0-1.692-3.841c-1-1.486-2.269-3.072-3.293-4.489a19.139,19.139,0,0,1-1.288-1.974,3.592,3.592,0,0,1-.541-1.616V12.117a.244.244,0,0,1,.244-.244h.442a1.437,1.437,0,1,0,0-2.873Zm3.6,9.459A1.04,1.04,0,1,1,32.875,19.5,1.044,1.044,0,0,1,33.919,18.459Zm-2.683,2.492a.918.918,0,1,1,0,1.837.918.918,0,0,1,0-1.837Zm3.994.953a1.486,1.486,0,1,1-1.486,1.486A1.488,1.488,0,0,1,35.23,21.9Zm3.323,3.041a1.04,1.04,0,1,1,0,2.081,1.04,1.04,0,0,1,0-2.081Zm-6.989.4a.7.7,0,1,1-.7.7A.706.706,0,0,1,31.564,25.341Z" transform="translate(-11.374 0)"/><path class="a" d="M12.977,32.984h4.339V44.84a2.173,2.173,0,1,1-4.339,0V43.416h2.468a.241.241,0,0,0,.174-.07.243.243,0,0,0,0-.348.242.242,0,0,0-.174-.071H12.977v-2.4h2.468a.244.244,0,1,0,0-.488H12.977V37.629h2.468a.238.238,0,0,0,.174-.07.244.244,0,0,0-.174-.417H12.977Z" transform="translate(0 -18.134)"/></g></svg>