<svg xmlns="http://www.w3.org/2000/svg" viewBox="0 0 27.347 20"><defs><style>.a{fill:#4284dd;}</style></defs><g transform="translate(-0.57 -14.219)"><path class="a" d="M4.123,69.156.944,67.039.57,67.6,3.749,69.72Z" transform="translate(0 -38.175)"/><path class="a" d="M8.663,52.732a4.212,4.212,0,0,0,1.8-3.092A3.468,3.468,0,0,0,7.3,46.07L9.31,42.993l-1.5-1.008-4.379,6.7,1.5,1.008,1.535-2.346c1.024.014,2.652.342,2.652,2.3,0,1.4-2.343,3.145-4.19,3.092H1.918v1.554h8.97V52.732Z" transform="translate(-0.974 -20.067)"/><path class="a" d="M28.718,22.794a4.287,4.287,0,1,1,4.291-4.284A4.287,4.287,0,0,1,28.718,22.794Z" transform="translate(-17.247 0)"/><path class="a" d="M56.925,56.105S49.833,41.465,43.718,45.14c-4.086,2.454-2.828,10.965-2.828,10.965Z" transform="translate(-29.008 -21.92)"/></g></svg>