<svg xmlns="http://www.w3.org/2000/svg" viewBox="0 0 16.418 20"><defs><style>.a{fill:#4284dd;}</style></defs><path class="a" d="M29.029,5H13.506a.448.448,0,0,0-.448.448v19.1a.448.448,0,0,0,.448.448H29.029a.448.448,0,0,0,.448-.448V5.448A.448.448,0,0,0,29.029,5ZM15.847,10.312H17.6V8.554h2.007v1.758h1.758v2.007H19.611v1.758H17.6V12.318H15.847ZM26.389,22.568H15.847v-.9H26.389Zm0-1.97H15.847v-.9H26.389Zm0-1.97H15.847v-.9H26.389Zm0-1.97H15.847v-.9H26.389Zm0-1.97H22.7v-.9h3.689Zm0-1.97H22.7v-.9h3.689Zm0-1.97h-3.73v-.9h3.73Zm0-1.747h-3.73v-.9h3.73Z" transform="translate(-13.058 -5)"/></svg>