<svg xmlns="http://www.w3.org/2000/svg" viewBox="0 0 19.304 20"><defs><style>.a{fill:#4284dd;}</style></defs><path class="a" d="M18.462,13.466a3.966,3.966,0,0,0-1.777.412,4.054,4.054,0,0,0,.105-2.2l-.927-3.946a4.828,4.828,0,0,0-1.21-2.356L15.2,3.3h0a.823.823,0,0,0-.412-.939,8.151,8.151,0,0,0-7.4,0,.825.825,0,0,0-.412.939l.546,2.077h0A4.822,4.822,0,0,0,6.309,7.723l-.942,3.951a4.075,4.075,0,0,0,1.294,3.992l-.942.255A3.619,3.619,0,0,0,3.16,19.388v1.237A.841.841,0,0,0,4,21.466H18.462a4,4,0,0,0,0-8ZM13.431,3.55l-.577,2.2a4.727,4.727,0,0,0-3.559,0L8.72,3.55a6.514,6.514,0,0,1,4.711,0Zm.707,7.769h0a3.671,3.671,0,0,1-1.3,2.714.339.339,0,0,0-.124.26V15.71h0a.872.872,0,0,0,.354.705l-1.809,2.359a.229.229,0,0,1-.353,0L9.1,16.414a.87.87,0,0,0,.354-.7v-1.42a.338.338,0,0,0-.123-.26A3.694,3.694,0,0,1,8.118,12.05L8,10.586,7.982,9.5a.221.221,0,0,1,.066-.167.23.23,0,0,1,.173-.062,5.412,5.412,0,0,0,3.827-1.546.23.23,0,0,1,.349.056,3.948,3.948,0,0,0,1.63,1.468.3.3,0,0,1,.161.272Zm6.424,6.46a.352.352,0,0,1-.353.352H19.125v1.084a.352.352,0,0,1-.352.353h-.618a.352.352,0,0,1-.353-.353V18.129H16.716a.352.352,0,0,1-.353-.353v-.618a.352.352,0,0,1,.353-.353H17.8V15.72a.352.352,0,0,1,.353-.352h.618a.352.352,0,0,1,.353.352V16.8h1.084a.353.353,0,0,1,.355.353Z" transform="translate(-3.16 -1.466)"/></svg>